<?xml version="1.0" encoding="utf-8"?>
<!-- Generator: Adobe Illustrator 27.9.0, SVG Export Plug-In . SVG Version: 6.00 Build 0)  -->
<svg version="1.1" id="Layer_2" xmlns="http://www.w3.org/2000/svg" xmlns:xlink="http://www.w3.org/1999/xlink" x="0px" y="0px"
	 viewBox="0 0 184 56" style="enable-background:new 0 0 184 56;" xml:space="preserve">
<style type="text/css">
	.st0{fill:#808080;}
</style>
<path class="st0" d="M8.8,26.3H0.3V12h8.4v1.7H2.3v4.3h6v1.7h-6v5h6.5L8.8,26.3L8.8,26.3z"/>
<path class="st0" d="M8.8,26.3H0.3V12h8.4v1.7H2.3v4.3h6v1.7h-6v5h6.5L8.8,26.3L8.8,26.3z"/>
<path class="st0" d="M25,12l-5.2,14.3H18L12.7,12h2.1l4,11.4l4-11.4L25,12z"/>
<path class="st0" d="M25,12l-5.2,14.3H18L12.7,12h2.1l4,11.4l4-11.4L25,12z"/>
<path class="st0" d="M36,13.7c-2.8,0-5.1,2-5.1,5.4s2.4,5.4,5.1,5.4s5.2-2,5.2-5.4S38.8,13.7,36,13.7 M36,26.3
	c-3.9,0-7.1-2.7-7.1-7.1S32.1,12,36,12s7.1,2.7,7.1,7.1S39.8,26.3,36,26.3"/>
<path class="st0" d="M36,13.7c-2.8,0-5.1,2-5.1,5.4s2.4,5.4,5.1,5.4s5.2-2,5.2-5.4C41.1,15.7,38.8,13.7,36,13.7z M36,26.3
	c-3.9,0-7.1-2.7-7.1-7.1S32.1,12,36,12s7.1,2.7,7.1,7.1S39.8,26.3,36,26.3z"/>
<path class="st0" d="M69.8,20.3c0,1.8-0.2,3.1-1.1,4.3c-1,1.1-2.4,1.7-4.2,1.7s-3.3-0.6-4.2-1.7c-1-1.1-1.1-2.5-1.1-4.3V12h2v8.1
	c0,1.2,0,2.3,0.7,3.1c0.6,0.8,1.5,1.2,2.7,1.2s2.1-0.5,2.7-1.2c0.6-0.8,0.7-2,0.7-3.1V12h2L69.8,20.3L69.8,20.3z"/>
<path class="st0" d="M69.8,20.3c0,1.8-0.2,3.1-1.1,4.3c-1,1.1-2.4,1.7-4.2,1.7s-3.3-0.6-4.2-1.7c-1-1.1-1.1-2.5-1.1-4.3V12h2v8.1
	c0,1.2,0,2.3,0.7,3.1c0.6,0.8,1.5,1.2,2.7,1.2s2.1-0.5,2.7-1.2c0.6-0.8,0.7-2,0.7-3.1V12h2L69.8,20.3L69.8,20.3z"/>
<path class="st0" d="M85.2,13.7h-4v12.6h-2V13.7h-4V12h10.1V13.7z"/>
<path class="st0" d="M85.2,13.7h-4v12.6h-2V13.7h-4V12h10.1V13.7z"/>
<path class="st0" d="M93.3,26.3h-2V12h2V26.3z"/>
<path class="st0" d="M105.5,13.7c-2.8,0-5.2,2-5.2,5.4s2.3,5.4,5.2,5.4s5.2-2,5.2-5.4S108.3,13.7,105.5,13.7 M105.5,26.3
	c-3.9,0-7.1-2.7-7.1-7.1s3.2-7.1,7.1-7.1s7.1,2.7,7.1,7.1S109.4,26.3,105.5,26.3"/>
<path class="st0" d="M105.5,13.7c-2.8,0-5.2,2-5.2,5.4s2.3,5.4,5.2,5.4s5.2-2,5.2-5.4C110.7,15.7,108.3,13.7,105.5,13.7z
	 M105.5,26.3c-3.9,0-7.1-2.7-7.1-7.1s3.2-7.1,7.1-7.1s7.1,2.7,7.1,7.1S109.4,26.3,105.5,26.3z"/>
<path class="st0" d="M130.2,26.3h-2L120,14.9c0,0,0,1.9,0,3.8v7.6h-2V12h2.1l8.1,11.2c0,0,0-1.8,0-3.6V12h2L130.2,26.3L130.2,26.3z"
	/>
<path class="st0" d="M130.2,26.3h-2L120,14.9c0,0,0,1.9,0,3.8v7.6h-2V12h2.1l8.1,11.2c0,0,0-1.8,0-3.6V12h2L130.2,26.3L130.2,26.3z"
	/>
<path class="st0" d="M137.9,26.3h-2V12h2V26.3z"/>
<path class="st0" d="M153.6,26.3H143v-1.5l7.8-11h-7.6V12h10.2v1.4l-7.9,11.2h8.1L153.6,26.3L153.6,26.3z"/>
<path class="st0" d="M153.6,26.3H143v-1.5l7.8-11h-7.6V12h10.2v1.4l-7.9,11.2h8.1L153.6,26.3L153.6,26.3z"/>
<path class="st0" d="M167.6,26.3h-8.5V12h8.4v1.7h-6.4v4.3h6v1.7h-6v5h6.5L167.6,26.3L167.6,26.3z"/>
<path class="st0" d="M167.6,26.3h-8.5V12h8.4v1.7h-6.4v4.3h6v1.7h-6v5h6.5L167.6,26.3L167.6,26.3z"/>
<path class="st0" d="M179.2,14.1c-0.6-0.5-1.4-0.5-2.4-0.5h-1.5v4.8h1.5c1,0,1.8,0,2.4-0.5c0.6-0.5,0.9-1,0.9-1.9
	S179.8,14.6,179.2,14.1 M183,26.3h-2.4l-3.7-6.1h-1.5v6.1h-2V12h4c1.4,0,2.6,0.3,3.4,1c0.9,0.7,1.4,1.7,1.4,3c0,2.5-1.7,3.6-3.2,3.9
	L183,26.3L183,26.3z"/>
<path class="st0" d="M179.2,14.1c-0.6-0.5-1.4-0.5-2.4-0.5h-1.5v4.8h1.5c1,0,1.8,0,2.4-0.5c0.6-0.5,0.9-1,0.9-1.9
	C180.1,15.2,179.8,14.6,179.2,14.1z M183,26.3h-2.4l-3.7-6.1h-1.5v6.1h-2V12h4c1.4,0,2.6,0.3,3.4,1c0.9,0.7,1.4,1.7,1.4,3
	c0,2.5-1.7,3.6-3.2,3.9L183,26.3L183,26.3z"/>
<path class="st0" d="M50.5,20.1V12h-2v8.2c0,3.4,2.7,6.1,6.1,6.1l0,0v-2C52.3,24.2,50.5,22.4,50.5,20.1"/>
<path class="st0" d="M50.5,20.1V12h-2v8.2c0,3.4,2.7,6.1,6.1,6.1l0,0v-2C52.3,24.2,50.5,22.4,50.5,20.1z"/>
<g>
	<path class="st0" d="M4.9,33.4v0.6h-4v3.1h3.8v0.6H0.9v3.7H5v0.6H0.3v-8.6L4.9,33.4L4.9,33.4z"/>
	<path class="st0" d="M7.2,36.3v1.1c0.3-0.7,1-1.2,1.9-1.2c1.7,0,2,1.1,2,2.4v3.5h-0.7v-3.4c0-0.9-0.2-1.9-1.4-1.9s-1.9,1.1-1.9,2.5
		v2.9H6.6v-5.8L7.2,36.3L7.2,36.3z"/>
	<path class="st0" d="M14.5,42.2c-0.6,0-0.9-0.2-1.1-0.6c-0.2-0.4-0.2-0.8-0.2-1.7v-2.9h-0.9v-0.6h0.9v-1.9h0.7v1.9h1.5v0.6h-1.5
		v3.3c0,0.4,0,0.8,0.2,1.1c0.1,0.2,0.3,0.3,0.6,0.3c0.4,0,0.6-0.2,0.6-0.2l0.1,0.6C15.1,42.1,14.8,42.2,14.5,42.2L14.5,42.2z"/>
	<path class="st0" d="M18.8,42.2c-1.7,0-2.8-1.2-2.8-3s1.3-3,2.8-3s2.6,1.1,2.6,2.7c0,0.2,0,0.4,0,0.4h-4.7c0.1,1.4,0.8,2.3,2.1,2.3
		c1.3,0,2-0.7,2-0.7l0.3,0.5C21.2,41.3,20.5,42.2,18.8,42.2L18.8,42.2z M18.8,36.7c-1.4,0-2,1.2-2.1,2h4.1
		C20.8,38,20.2,36.7,18.8,36.7L18.8,36.7z"/>
	<path class="st0" d="M23.5,36.3v1.1c0.2-0.8,0.9-1.2,1.5-1.2c0.4,0,0.6,0.1,0.6,0.1l-0.1,0.6h0c-0.1,0-0.3-0.1-0.6-0.1
		c-0.6,0-0.9,0.4-1,0.5S23.5,38,23.5,39v3.1h-0.6v-5.8L23.5,36.3L23.5,36.3z"/>
	<path class="st0" d="M27.3,36.3v1.1c0.5-0.8,1.3-1.2,2.2-1.2c1.8,0,2.9,1.3,2.9,3c0,1.7-1.1,3-2.9,3c-0.8,0-1.6-0.3-2.2-1.2v3.5
		h-0.6v-8.2H27.3L27.3,36.3z M31.6,39.2c0-1.3-0.8-2.5-2.2-2.5c-1.4,0-2.2,1.1-2.2,2.5c0,1.4,0.8,2.4,2.2,2.4
		C30.9,41.6,31.6,40.5,31.6,39.2z"/>
	<path class="st0" d="M34.4,36.3v1.1c0.2-0.8,0.9-1.2,1.5-1.2c0.4,0,0.6,0.1,0.6,0.1l-0.1,0.6h0c-0.1,0-0.3-0.1-0.6-0.1
		c-0.6,0-0.9,0.4-1,0.5S34.4,38,34.4,39v3.1h-0.6v-5.8L34.4,36.3L34.4,36.3z"/>
	<path class="st0" d="M37.9,33.7c0.3,0,0.5,0.2,0.5,0.5s-0.2,0.5-0.5,0.5c-0.3,0-0.5-0.2-0.5-0.5S37.6,33.7,37.9,33.7z M38.2,36.3
		v5.8h-0.6v-5.8H38.2z"/>
	<path class="st0" d="M41.7,41.6c0.7,0,1.4-0.4,1.4-1.1c0-0.6-0.8-0.9-1.3-1.1l-0.2-0.1c-0.5-0.2-1.6-0.5-1.6-1.6
		c0-1.1,0.9-1.5,1.8-1.5s1.4,0.3,1.8,0.8l-0.4,0.4c-0.4-0.4-0.8-0.7-1.5-0.7c-0.7,0-1.1,0.3-1.1,0.9s0.6,0.9,1.3,1.1l0.2,0.1
		c0.7,0.2,1.6,0.7,1.6,1.6c0,1.1-1,1.7-2,1.7c-1.1,0-1.7-0.5-2.1-1.1l0.5-0.4C40.4,41.2,41,41.6,41.7,41.6L41.7,41.6z"/>
	<path class="st0" d="M47.4,42.2c-1.7,0-2.8-1.2-2.8-3s1.3-3,2.8-3s2.6,1.1,2.6,2.7c0,0.2,0,0.4,0,0.4h-4.7c0.1,1.4,0.8,2.3,2.1,2.3
		c1.3,0,2-0.7,2-0.7l0.3,0.5C49.8,41.3,49,42.2,47.4,42.2L47.4,42.2z M47.4,36.7c-1.4,0-2,1.2-2.1,2h4.1
		C49.3,38,48.8,36.7,47.4,36.7z"/>
	<path class="st0" d="M53.7,33.4l2.7,7.5l2.7-7.5h0.7l-3.1,8.6h-0.5L53,33.4H53.7L53.7,33.4z"/>
	<path class="st0" d="M61.9,42.2c-1.1,0-1.9-0.7-1.9-1.7c0-1,0.7-1.7,2.3-1.7l1.6-0.1v-0.3c0-1.1-0.7-1.6-1.6-1.6s-1.6,0.4-1.7,0.5
		l-0.2-0.5c0.4-0.2,1.1-0.6,1.9-0.6s1.4,0.3,1.7,0.6c0.3,0.4,0.6,0.8,0.6,1.8v3.4h-0.7v-0.8C63.7,41.5,63.1,42.2,61.9,42.2
		L61.9,42.2z M60.7,40.4c0,0.6,0.5,1.2,1.4,1.2c0.9,0,1.6-0.6,1.8-1.1v-1.4l-1.6,0.1C61,39.3,60.7,39.8,60.7,40.4L60.7,40.4z"/>
	<path class="st0" d="M67,33.4v8.6h-0.6v-8.6H67z"/>
	<path class="st0" d="M70.9,42.2c-0.8,0-1.3-0.3-1.6-0.6c-0.3-0.4-0.4-1-0.4-1.8v-3.5h0.6v3.5c0,0.9,0.2,1.8,1.4,1.8
		s1.8-1.1,1.8-2.2v-3.1h0.6v5.8h-0.6v-0.9C72.4,41.8,71.7,42.2,70.9,42.2L70.9,42.2z"/>
	<path class="st0" d="M77.6,42.2c-1.7,0-2.8-1.2-2.8-3s1.3-3,2.8-3c1.5,0,2.6,1.1,2.6,2.7c0,0.2,0,0.4,0,0.4h-4.7
		c0.1,1.4,0.8,2.3,2.1,2.3c1.3,0,2-0.7,2-0.7l0.3,0.5C80,41.3,79.3,42.2,77.6,42.2L77.6,42.2z M77.6,36.7c-1.4,0-2,1.2-2.1,2h4.1
		C79.6,38,79.1,36.7,77.6,36.7z"/>
	<path class="st0" d="M83.7,37.8c0-2.7,2-4.5,4.4-4.5s4.4,1.7,4.4,4.5c0,2.7-2,4.5-4.4,4.5S83.7,40.5,83.7,37.8z M91.8,37.8
		c0-2.4-1.7-3.8-3.7-3.8s-3.7,1.4-3.7,3.8s1.7,3.8,3.7,3.8S91.8,40.2,91.8,37.8z"/>
	<path class="st0" d="M94.7,36.3v1.1c0.5-0.8,1.3-1.2,2.2-1.2c1.8,0,2.9,1.3,2.9,3c0,1.7-1.1,3-2.9,3c-0.8,0-1.6-0.3-2.2-1.2v3.5
		h-0.6v-8.2H94.7L94.7,36.3z M99.1,39.2c0-1.3-0.8-2.5-2.2-2.5s-2.2,1.1-2.2,2.5c0,1.4,0.8,2.4,2.2,2.4S99.1,40.5,99.1,39.2z"/>
	<path class="st0" d="M102.7,42.2c-0.6,0-0.9-0.2-1.1-0.6c-0.2-0.4-0.2-0.8-0.2-1.7v-2.9h-0.9v-0.6h0.9v-1.9h0.7v1.9h1.5v0.6H102
		v3.3c0,0.4,0,0.8,0.2,1.1c0.1,0.2,0.3,0.3,0.6,0.3c0.4,0,0.6-0.2,0.6-0.2l0.1,0.6C103.4,42.1,103.1,42.2,102.7,42.2L102.7,42.2z"/>
	<path class="st0" d="M105.1,33.7c0.3,0,0.5,0.2,0.5,0.5s-0.2,0.5-0.5,0.5s-0.5-0.2-0.5-0.5S104.8,33.7,105.1,33.7z M105.4,36.3v5.8
		h-0.6v-5.8H105.4z"/>
	<path class="st0" d="M108,36.3v1.1c0.2-0.6,1-1.2,1.7-1.2c0.9,0,1.5,0.5,1.7,1.2c0.4-0.7,1.1-1.2,1.8-1.2c1.6,0,1.9,1.2,1.9,2.4
		v3.5h-0.6v-3.5c0-0.7-0.1-1.8-1.2-1.8c-1.1,0-1.7,1.1-1.7,2.3v3H111v-3.5c0-1-0.2-1.8-1.2-1.8c-1.1,0-1.7,1.1-1.7,2.3v3h-0.6v-5.8
		L108,36.3L108,36.3z"/>
	<path class="st0" d="M117.4,33.7c0.3,0,0.5,0.2,0.5,0.5s-0.2,0.5-0.5,0.5c-0.3,0-0.5-0.2-0.5-0.5S117.2,33.7,117.4,33.7z
		 M117.8,36.3v5.8h-0.6v-5.8H117.8z"/>
	<path class="st0" d="M122.8,36.9h-3.5v-0.6h4.4v0.5l-3.7,4.7h3.9v0.6h-4.7v-0.5L122.8,36.9z"/>
	<path class="st0" d="M126.5,42.2c-1.1,0-1.9-0.7-1.9-1.7c0-1,0.7-1.7,2.3-1.7l1.6-0.1v-0.3c0-1.1-0.7-1.6-1.6-1.6
		c-0.9,0-1.6,0.4-1.7,0.5l-0.2-0.5c0.4-0.2,1.1-0.6,1.9-0.6s1.4,0.3,1.7,0.6c0.3,0.4,0.6,0.8,0.6,1.8v3.4h-0.7v-0.8
		C128.2,41.5,127.6,42.2,126.5,42.2L126.5,42.2z M125.2,40.4c0,0.6,0.5,1.2,1.4,1.2c0.9,0,1.6-0.6,1.8-1.1v-1.4l-1.6,0.1
		C125.6,39.3,125.2,39.8,125.2,40.4L125.2,40.4z"/>
	<path class="st0" d="M132.3,42.2c-0.6,0-0.9-0.2-1.1-0.6c-0.2-0.4-0.2-0.8-0.2-1.7v-2.9h-0.9v-0.6h0.9v-1.9h0.7v1.9h1.5v0.6h-1.5
		v3.3c0,0.4,0,0.8,0.2,1.1c0.1,0.2,0.3,0.3,0.6,0.3c0.4,0,0.6-0.2,0.6-0.2l0.1,0.6C133,42.1,132.7,42.2,132.3,42.2L132.3,42.2z"/>
	<path class="st0" d="M134.7,33.7c0.3,0,0.5,0.2,0.5,0.5s-0.2,0.5-0.5,0.5c-0.3,0-0.5-0.2-0.5-0.5S134.4,33.7,134.7,33.7z M135,36.3
		v5.8h-0.6v-5.8H135z"/>
	<path class="st0" d="M139.5,36.2c1.7,0,3,1.3,3,3s-1.3,3-3,3s-3-1.2-3-3S137.9,36.2,139.5,36.2z M141.8,39.2c0-1.4-0.9-2.4-2.3-2.4
		c-1.4,0-2.3,1.1-2.3,2.4s0.9,2.4,2.3,2.4C140.9,41.6,141.8,40.5,141.8,39.2z"/>
	<path class="st0" d="M144.6,36.3v1.1c0.3-0.7,1-1.2,1.9-1.2c1.7,0,2,1.1,2,2.4v3.5h-0.7v-3.4c0-0.9-0.2-1.9-1.4-1.9
		c-1.2,0-1.9,1.1-1.9,2.5v2.9h-0.6v-5.8L144.6,36.3L144.6,36.3z"/>
	<path class="st0" d="M156.7,42.2c-2.5,0-4.3-1.8-4.3-4.5c0-2.6,1.9-4.5,4.3-4.5c1.5,0,2.5,0.6,3.1,1.2l-0.4,0.5
		c-0.4-0.6-1.4-1.1-2.7-1.1c-2.1,0-3.6,1.6-3.6,3.8c0,2.2,1.5,3.8,3.6,3.8c1.2,0,2.1-0.5,2.7-1.1l0.4,0.4
		C159.3,41.6,158.3,42.2,156.7,42.2L156.7,42.2z"/>
	<path class="st0" d="M161.9,33.4v8.6h-0.6v-8.6H161.9z"/>
	<path class="st0" d="M166.4,36.2c1.7,0,3,1.3,3,3s-1.3,3-3,3c-1.7,0-3-1.2-3-3S164.7,36.2,166.4,36.2z M168.7,39.2
		c0-1.4-0.9-2.4-2.3-2.4c-1.4,0-2.3,1.1-2.3,2.4s0.9,2.4,2.3,2.4C167.8,41.6,168.7,40.5,168.7,39.2z"/>
	<path class="st0" d="M172.7,42.2c-0.8,0-1.3-0.3-1.6-0.6c-0.3-0.4-0.4-1-0.4-1.8v-3.5h0.6v3.5c0,0.9,0.2,1.8,1.4,1.8
		c1.3,0,1.8-1.1,1.8-2.2v-3.1h0.6v5.8h-0.6v-0.9C174.2,41.8,173.5,42.2,172.7,42.2L172.7,42.2z"/>
	<path class="st0" d="M181.7,41c-0.5,0.8-1.3,1.2-2.1,1.2c-1.7,0-2.9-1.3-2.9-3c0-1.7,1.1-3,2.9-3c0.8,0,1.6,0.3,2.2,1.2v-3.9h0.7
		v8.6h-0.7C181.7,42.1,181.7,41,181.7,41z M181.8,39.2c0-1.4-0.8-2.4-2.2-2.4c-1.4,0-2.2,1.1-2.2,2.4s0.8,2.4,2.2,2.4
		C181,41.6,181.8,40.5,181.8,39.2z"/>
</g>
</svg>
